<svg xmlns="http://www.w3.org/2000/svg" width="107" height="107"><path d="M107 53.5l-4.82 3.66 4.23 4.33-5.31 2.9 3.54 4.92-5.69 2.07 2.76 5.4-5.93 1.19 1.93 5.75-6.04.29 1.05 5.98-6.02-.61.16 6.06-5.86-1.5-.74 6.02-5.58-2.35-1.63 5.84-5.16-3.17-2.48 5.53-4.63-3.91-3.28 5.1-4-4.56-4 4.56-3.283-5.1-4.627 3.91-2.487-5.53-5.158 3.17-1.631-5.84-5.574 2.35-.74-6.02-5.861 1.5.158-6.06-6.017.61 1.052-5.98-6.041-.29 1.925-5.75-5.93-1.19 2.761-5.4-5.685-2.07 3.537-4.92-5.31-2.9 4.231-4.33L0 53.5l4.822-3.66L.591 45.5l5.31-2.9-3.537-4.92 5.685-2.07-2.76-5.4 5.93-1.19-1.925-5.75 6.041-.29-1.052-5.97 6.018.61-.158-6.07 5.861 1.5.741-6.02 5.574 2.36 1.631-5.84 5.158 3.16 2.487-5.53 4.626 3.91L49.5 0l4 4.55 4-4.55 3.28 5.09 4.63-3.91 2.48 5.53 5.16-3.16 1.63 5.84 5.58-2.36.74 6.02 5.86-1.5-.16 6.07 6.02-.61-1.05 5.97 6.04.29-1.93 5.75 5.93 1.19-2.76 5.4 5.69 2.07-3.54 4.92 5.31 2.9-4.23 4.34z" fill="#a59d9a" fill-rule="evenodd"/></svg>