<svg xmlns="http://www.w3.org/2000/svg" width="157" height="157"><path d="M157 78.5c0 2.89-4.348 5.51-4.661 8.32-.319 2.87 3.338 6.39 2.71 9.15-.638 2.81-5.462 4.4-6.4 7.08-.948 2.71 1.829 6.96.593 9.52-1.246 2.58-6.3 3.05-7.821 5.46-1.526 2.43.235 7.19-1.545 9.42s-6.819 1.57-8.839 3.59-1.356 7.05-3.591 8.84-6.992.02-9.415 1.54-2.881 6.58-5.464 7.82c-2.562 1.24-6.809-1.54-9.521-.59-2.68.94-4.269 5.76-7.075 6.4-2.763.63-6.28-3.03-9.148-2.71-2.809.31-5.431 4.66-8.323 4.66s-5.515-4.35-8.324-4.66c-2.868-.32-6.385 3.34-9.148 2.71-2.807-.64-4.4-5.46-7.076-6.4-2.711-.95-6.959 1.83-9.521.59-2.583-1.24-3.053-6.3-5.465-7.82s-7.184.24-9.414-1.54-1.571-6.82-3.591-8.84-7.054-1.36-8.838-3.59-.02-7-1.546-9.42-6.574-2.88-7.82-5.46c-1.236-2.56 1.541-6.81.592-9.52-.938-2.68-5.761-4.27-6.4-7.08-.628-2.76 3.029-6.28 2.709-9.15-.313-2.81-4.661-5.43-4.661-8.32s4.348-5.52 4.661-8.32c.32-2.87-3.337-6.39-2.709-9.15.637-2.81 5.46-4.4 6.4-7.08.949-2.71-1.828-6.96-.592-9.52 1.246-2.58 6.3-3.05 7.821-5.46 1.526-2.43-.235-7.19 1.546-9.42s6.818-1.57 8.838-3.59 1.357-7.05 3.591-8.84 6.991-.02 9.415-1.54S41.849 9 44.432 7.76c2.562-1.24 6.809 1.54 9.521.59 2.68-.94 4.268-5.76 7.075-6.4 2.763-.63 6.281 3.03 9.148 2.71C72.985 4.35 75.607 0 78.5 0s5.514 4.35 8.323 4.66c2.868.32 6.385-3.34 9.148-2.71 2.807.64 4.4 5.46 7.076 6.4 2.711.95 6.959-1.83 9.522-.59 2.582 1.24 3.052 6.3 5.464 7.82s7.184-.24 9.414 1.54 1.572 6.82 3.591 8.84 7.053 1.36 8.838 3.59.02 6.99 1.546 9.42c1.518 2.41 6.574 2.88 7.82 5.46 1.236 2.56-1.541 6.81-.592 9.52.937 2.68 5.761 4.27 6.4 7.08.628 2.76-3.029 6.28-2.71 9.15.312 2.8 4.66 5.43 4.66 8.32z" fill="#525252" fill-rule="evenodd"/></svg>