<svg xmlns="http://www.w3.org/2000/svg" width="142" height="142"><path id="Shape_5_copy" data-name="Shape 5 copy" d="M141.5 71c0 2.6-3.9 4.95-4.186 7.47-.287 2.58 3 5.74 2.434 8.22-.574 2.52-4.905 3.95-5.748 6.36-.851 2.43 1.643 6.25.533 8.55-1.12 2.32-5.661 2.74-7.025 4.9-1.369 2.18.212 6.46-1.387 8.46s-6.124 1.41-7.938 3.22-1.218 6.34-3.225 7.94-6.279.02-8.455 1.39-2.588 5.9-4.907 7.02c-2.3 1.11-6.116-1.38-8.552-.53-2.406.84-3.833 5.17-6.354 5.75-2.481.56-5.64-2.72-8.215-2.44-2.523.28-4.878 4.19-7.475 4.19s-4.953-3.91-7.476-4.19c-2.575-.28-5.734 3-8.215 2.44-2.521-.58-3.948-4.91-6.355-5.75-2.435-.85-6.25 1.64-8.551.53-2.32-1.12-2.742-5.66-4.908-7.02s-6.452.21-8.454-1.39-1.412-6.12-3.226-7.94-6.335-1.22-7.937-3.22-.018-6.28-1.388-8.46c-1.364-2.16-5.9-2.58-7.024-4.9s1.384-6.12.532-8.56c-.842-2.4-5.173-3.83-5.746-6.35-.564-2.48 2.72-5.64 2.433-8.22C4.404 75.95.499 73.6.499 71s3.9-4.95 4.186-7.48c.287-2.57-3-5.73-2.433-8.21.573-2.52 4.9-3.95 5.746-6.36.853-2.43-1.641-6.25-.531-8.55 1.119-2.32 5.66-2.74 7.023-4.91s-.21-6.45 1.389-8.45 6.123-1.41 7.937-3.23 1.219-6.33 3.226-7.93 6.278-.02 8.454-1.39 2.588-5.91 4.908-7.02c2.3-1.11 6.115 1.38 8.55.53 2.407-.84 3.834-5.18 6.355-5.75 2.481-.56 5.64 2.72 8.215 2.43C66.047 4.4 68.402.5 71 .5s4.952 3.9 7.475 4.18c2.575.29 5.734-2.99 8.215-2.43 2.522.57 3.948 4.91 6.355 5.75 2.435.85 6.251-1.64 8.552-.53 2.319 1.12 2.741 5.66 4.907 7.02s6.452-.21 8.455 1.39 1.411 6.12 3.225 7.94 6.334 1.21 7.937 3.22.018 6.28 1.389 8.46c1.363 2.16 5.9 2.58 7.023 4.9 1.11 2.3-1.384 6.12-.532 8.55.842 2.41 5.173 3.84 5.747 6.36.564 2.48-2.721 5.64-2.434 8.21.286 2.53 4.186 4.88 4.186 7.48z" fill="#525252" stroke="#fff" stroke-linejoin="round" stroke-opacity=".59" stroke-width="1" fill-rule="evenodd"/></svg>