<svg xmlns="http://www.w3.org/2000/svg" width="107" height="107" viewBox="0 0 107 107">
  <metadata><?xpacket begin="﻿" id="W5M0MpCehiHzreSzNTczkc9d"?>
<x:xmpmeta xmlns:x="adobe:ns:meta/" x:xmptk="Adobe XMP Core 5.6-c142 79.160924, 2017/07/13-01:06:39        ">
   <rdf:RDF xmlns:rdf="http://www.w3.org/1999/02/22-rdf-syntax-ns#">
      <rdf:Description rdf:about=""/>
   </rdf:RDF>
</x:xmpmeta>
                                                                                                    
                                                                                                    
                                                                                                    
                                                                                                    
                                                                                                    
                                                                                                    
                                                                                                    
                                                                                                    
                                                                                                    
                                                                                                    
                                                                                                    
                                                                                                    
                                                                                                    
                                                                                                    
                                                                                                    
                                                                                                    
                                                                                                    
                                                                                                    
                                                                                                    
                                                                                                    
                           
<?xpacket end="w"?></metadata>
<defs>
    <style>
      .cls-1 {
        fill: #a59d9a;
        fill-rule: evenodd;
      }
    </style>
  </defs>
  <path class="cls-1" d="M1057,2678.5l-4.82,3.66,4.23,4.33-5.31,2.9,3.54,4.92-5.69,2.07,2.76,5.4-5.93,1.19,1.93,5.75-6.04.29,1.05,5.98-6.02-.61,0.16,6.06-5.86-1.5-0.74,6.02-5.58-2.35-1.63,5.84-5.16-3.17-2.48,5.53-4.63-3.91-3.28,5.1-4-4.56-4,4.56-3.283-5.1-4.627,3.91-2.487-5.53-5.158,3.17-1.631-5.84-5.574,2.35L976,2718.94l-5.861,1.5,0.158-6.06-6.017.61,1.052-5.98-6.041-.29,1.925-5.75-5.93-1.19,2.761-5.4-5.685-2.07,3.537-4.92-5.31-2.9,4.231-4.33L950,2678.5l4.822-3.66-4.231-4.34,5.31-2.9-3.537-4.92,5.685-2.07-2.76-5.4,5.93-1.19-1.925-5.75,6.041-.29-1.052-5.97,6.018,0.61-0.158-6.07,5.861,1.5,0.741-6.02,5.574,2.36,1.631-5.84,5.158,3.16,2.487-5.53,4.626,3.91L999.5,2625l4,4.55,4-4.55,3.28,5.09,4.63-3.91,2.48,5.53,5.16-3.16,1.63,5.84,5.58-2.36,0.74,6.02,5.86-1.5-0.16,6.07,6.02-.61-1.05,5.97,6.04,0.29-1.93,5.75,5.93,1.19-2.76,5.4,5.69,2.07-3.54,4.92,5.31,2.9-4.23,4.34Z" transform="translate(-950 -2625)"/>
</svg>
